<?xml version="1.0" encoding="UTF-8" standalone="no"?>
<!DOCTYPE svg PUBLIC "-//W3C//DTD SVG 1.1//EN"
 "http://www.w3.org/Graphics/SVG/1.1/DTD/svg11.dtd">
<!-- Generated by graphviz version 2.50.0 (0)
 -->
<!-- Pages: 1 -->
<svg width="289pt" height="485pt"
 viewBox="0.00 0.00 288.80 484.81" xmlns="http://www.w3.org/2000/svg" xmlns:xlink="http://www.w3.org/1999/xlink">
<g id="graph0" class="graph" transform="scale(1 1) rotate(0) translate(4 480.81)">
<polygon fill="white" stroke="transparent" points="-4,4 -4,-480.81 284.8,-480.81 284.8,4 -4,4"/>
<g id="clust1" class="cluster">
<title>cluster12 x 1</title>
<path fill="none" stroke="black" d="M114.67,-354.86C114.67,-354.86 190.67,-354.86 190.67,-354.86 196.67,-354.86 202.67,-360.86 202.67,-366.86 202.67,-366.86 202.67,-456.81 202.67,-456.81 202.67,-462.81 196.67,-468.81 190.67,-468.81 190.67,-468.81 114.67,-468.81 114.67,-468.81 108.67,-468.81 102.67,-462.81 102.67,-456.81 102.67,-456.81 102.67,-366.86 102.67,-366.86 102.67,-360.86 108.67,-354.86 114.67,-354.86"/>
<text text-anchor="middle" x="177.17" y="-362.66" font-family="Times,serif" font-size="14.00">12 x 1</text>
</g>
<g id="clust2" class="cluster">
<title>cluster12 x 2</title>
<path fill="none" stroke="black" d="M33.67,-232.91C33.67,-232.91 109.67,-232.91 109.67,-232.91 115.67,-232.91 121.67,-238.91 121.67,-244.91 121.67,-244.91 121.67,-334.86 121.67,-334.86 121.67,-340.86 115.67,-346.86 109.67,-346.86 109.67,-346.86 33.67,-346.86 33.67,-346.86 27.67,-346.86 21.67,-340.86 21.67,-334.86 21.67,-334.86 21.67,-244.91 21.67,-244.91 21.67,-238.91 27.67,-232.91 33.67,-232.91"/>
<text text-anchor="middle" x="96.17" y="-240.71" font-family="Times,serif" font-size="14.00">12 x 2</text>
</g>
<g id="clust3" class="cluster">
<title>cluster500</title>
<path fill="none" stroke="black" d="M80.67,-8C80.67,-8 174.67,-8 174.67,-8 180.67,-8 186.67,-14 186.67,-20 186.67,-20 186.67,-209.93 186.67,-209.93 186.67,-215.93 180.67,-221.93 174.67,-221.93 174.67,-221.93 80.67,-221.93 80.67,-221.93 74.67,-221.93 68.67,-215.93 68.67,-209.93 68.67,-209.93 68.67,-20 68.67,-20 68.67,-14 74.67,-8 80.67,-8"/>
<text text-anchor="middle" x="168.17" y="-15.8" font-family="Times,serif" font-size="14.00">500</text>
</g>
<!-- sigma_w -->
<g id="node1" class="node">
<title>sigma_w</title>
<ellipse fill="none" stroke="black" cx="46.67" cy="-423.34" rx="46.84" ry="37.45"/>
<text text-anchor="middle" x="46.67" y="-434.64" font-family="Times,serif" font-size="14.00">sigma_w</text>
<text text-anchor="middle" x="46.67" y="-419.64" font-family="Times,serif" font-size="14.00">~</text>
<text text-anchor="middle" x="46.67" y="-404.64" font-family="Times,serif" font-size="14.00">Gamma</text>
</g>
<!-- w -->
<g id="node5" class="node">
<title>w</title>
<ellipse fill="none" stroke="black" cx="71.67" cy="-301.38" rx="41.94" ry="37.45"/>
<text text-anchor="middle" x="71.67" y="-312.68" font-family="Times,serif" font-size="14.00">w</text>
<text text-anchor="middle" x="71.67" y="-297.68" font-family="Times,serif" font-size="14.00">~</text>
<text text-anchor="middle" x="71.67" y="-282.68" font-family="Times,serif" font-size="14.00">Normal</text>
</g>
<!-- sigma_w&#45;&gt;w -->
<g id="edge1" class="edge">
<title>sigma_w&#45;&gt;w</title>
<path fill="none" stroke="black" d="M54.17,-386.35C56.67,-374.37 59.48,-360.86 62.11,-348.24"/>
<polygon fill="black" stroke="black" points="65.56,-348.85 64.17,-338.35 58.71,-347.42 65.56,-348.85"/>
</g>
<!-- a -->
<g id="node2" class="node">
<title>a</title>
<ellipse fill="none" stroke="black" cx="172.67" cy="-301.38" rx="41.94" ry="37.45"/>
<text text-anchor="middle" x="172.67" y="-312.68" font-family="Times,serif" font-size="14.00">a</text>
<text text-anchor="middle" x="172.67" y="-297.68" font-family="Times,serif" font-size="14.00">~</text>
<text text-anchor="middle" x="172.67" y="-282.68" font-family="Times,serif" font-size="14.00">Normal</text>
</g>
<!-- mu -->
<g id="node7" class="node">
<title>mu</title>
<polygon fill="none" stroke="black" points="168.17,-213.93 77.17,-213.93 77.17,-160.93 168.17,-160.93 168.17,-213.93"/>
<text text-anchor="middle" x="122.67" y="-198.73" font-family="Times,serif" font-size="14.00">mu</text>
<text text-anchor="middle" x="122.67" y="-183.73" font-family="Times,serif" font-size="14.00">~</text>
<text text-anchor="middle" x="122.67" y="-168.73" font-family="Times,serif" font-size="14.00">Deterministic</text>
</g>
<!-- a&#45;&gt;mu -->
<g id="edge3" class="edge">
<title>a&#45;&gt;mu</title>
<path fill="none" stroke="black" d="M157.4,-266.19C151.39,-252.73 144.49,-237.29 138.43,-223.73"/>
<polygon fill="black" stroke="black" points="141.47,-221.95 134.2,-214.25 135.08,-224.8 141.47,-221.95"/>
</g>
<!-- sigma -->
<g id="node3" class="node">
<title>sigma</title>
<ellipse fill="none" stroke="black" cx="237.67" cy="-187.43" rx="43.27" ry="37.45"/>
<text text-anchor="middle" x="237.67" y="-198.73" font-family="Times,serif" font-size="14.00">sigma</text>
<text text-anchor="middle" x="237.67" y="-183.73" font-family="Times,serif" font-size="14.00">~</text>
<text text-anchor="middle" x="237.67" y="-168.73" font-family="Times,serif" font-size="14.00">Gamma</text>
</g>
<!-- y -->
<g id="node6" class="node">
<title>y</title>
<ellipse fill="lightgrey" stroke="black" cx="118.67" cy="-76.48" rx="41.94" ry="37.45"/>
<text text-anchor="middle" x="118.67" y="-87.78" font-family="Times,serif" font-size="14.00">y</text>
<text text-anchor="middle" x="118.67" y="-72.78" font-family="Times,serif" font-size="14.00">~</text>
<text text-anchor="middle" x="118.67" y="-57.78" font-family="Times,serif" font-size="14.00">Normal</text>
</g>
<!-- sigma&#45;&gt;y -->
<g id="edge7" class="edge">
<title>sigma&#45;&gt;y</title>
<path fill="none" stroke="black" d="M208.25,-159.5C192.14,-144.74 172.03,-126.33 154.95,-110.69"/>
<polygon fill="black" stroke="black" points="157.07,-107.89 147.34,-103.72 152.35,-113.06 157.07,-107.89"/>
</g>
<!-- mu_w -->
<g id="node4" class="node">
<title>mu_w</title>
<ellipse fill="none" stroke="black" cx="152.67" cy="-423.34" rx="41.94" ry="37.45"/>
<text text-anchor="middle" x="152.67" y="-434.64" font-family="Times,serif" font-size="14.00">mu_w</text>
<text text-anchor="middle" x="152.67" y="-419.64" font-family="Times,serif" font-size="14.00">~</text>
<text text-anchor="middle" x="152.67" y="-404.64" font-family="Times,serif" font-size="14.00">Normal</text>
</g>
<!-- mu_w&#45;&gt;w -->
<g id="edge2" class="edge">
<title>mu_w&#45;&gt;w</title>
<path fill="none" stroke="black" d="M131.39,-390.82C121.42,-376.06 109.43,-358.31 98.82,-342.59"/>
<polygon fill="black" stroke="black" points="101.59,-340.43 93.09,-334.11 95.79,-344.35 101.59,-340.43"/>
</g>
<!-- w&#45;&gt;mu -->
<g id="edge4" class="edge">
<title>w&#45;&gt;mu</title>
<path fill="none" stroke="black" d="M87.11,-266.49C93.35,-252.79 100.55,-236.99 106.83,-223.2"/>
<polygon fill="black" stroke="black" points="110.05,-224.58 111.01,-214.03 103.68,-221.68 110.05,-224.58"/>
</g>
<!-- y&#45;&gt;y -->
<g id="edge5" class="edge">
<title>y&#45;&gt;y</title>
<path fill="none" stroke="black" d="M153.63,-97.02C167.15,-97.93 178.39,-91.09 178.39,-76.48 178.39,-65.75 172.33,-59.2 163.76,-56.85"/>
<polygon fill="black" stroke="black" points="163.91,-53.35 153.63,-55.93 163.28,-60.32 163.91,-53.35"/>
</g>
<!-- mu&#45;&gt;y -->
<g id="edge6" class="edge">
<title>mu&#45;&gt;y</title>
<path fill="none" stroke="black" d="M121.73,-160.89C121.33,-149.98 120.85,-136.89 120.39,-124.35"/>
<polygon fill="black" stroke="black" points="123.87,-123.87 120.01,-114 116.88,-124.12 123.87,-123.87"/>
</g>
</g>
</svg>
