<?xml version="1.0" encoding="UTF-8" standalone="no"?>
<!DOCTYPE svg PUBLIC "-//W3C//DTD SVG 1.1//EN"
 "http://www.w3.org/Graphics/SVG/1.1/DTD/svg11.dtd">
<!-- Generated by graphviz version 2.50.0 (0)
 -->
<!-- Pages: 1 -->
<svg width="570pt" height="485pt"
 viewBox="0.00 0.00 569.72 484.81" xmlns="http://www.w3.org/2000/svg" xmlns:xlink="http://www.w3.org/1999/xlink">
<g id="graph0" class="graph" transform="scale(1 1) rotate(0) translate(4 480.81)">
<polygon fill="white" stroke="transparent" points="-4,4 -4,-480.81 565.72,-480.81 565.72,4 -4,4"/>
<g id="clust1" class="cluster">
<title>cluster66</title>
<path fill="none" stroke="black" d="M152,-354.86C152,-354.86 314,-354.86 314,-354.86 320,-354.86 326,-360.86 326,-366.86 326,-366.86 326,-456.81 326,-456.81 326,-462.81 320,-468.81 314,-468.81 314,-468.81 152,-468.81 152,-468.81 146,-468.81 140,-462.81 140,-456.81 140,-456.81 140,-366.86 140,-366.86 140,-360.86 146,-354.86 152,-354.86"/>
<text text-anchor="middle" x="311" y="-362.66" font-family="Times,serif" font-size="14.00">66</text>
</g>
<g id="clust2" class="cluster">
<title>cluster11 x 11</title>
<path fill="none" stroke="black" d="M20,-243.88C20,-243.88 213,-243.88 213,-243.88 219,-243.88 225,-249.88 225,-255.88 225,-255.88 225,-323.88 225,-323.88 225,-329.88 219,-335.88 213,-335.88 213,-335.88 20,-335.88 20,-335.88 14,-335.88 8,-329.88 8,-323.88 8,-323.88 8,-255.88 8,-255.88 8,-249.88 14,-243.88 20,-243.88"/>
<text text-anchor="middle" x="196" y="-251.68" font-family="Times,serif" font-size="14.00">11 x 11</text>
</g>
<g id="clust3" class="cluster">
<title>cluster11</title>
<path fill="none" stroke="black" d="M245,-232.91C245,-232.91 457,-232.91 457,-232.91 463,-232.91 469,-238.91 469,-244.91 469,-244.91 469,-334.86 469,-334.86 469,-340.86 463,-346.86 457,-346.86 457,-346.86 245,-346.86 245,-346.86 239,-346.86 233,-340.86 233,-334.86 233,-334.86 233,-244.91 233,-244.91 233,-238.91 239,-232.91 245,-232.91"/>
<text text-anchor="middle" x="454" y="-240.71" font-family="Times,serif" font-size="14.00">11</text>
</g>
<g id="clust4" class="cluster">
<title>cluster200</title>
<path fill="none" stroke="black" d="M308,-8C308,-8 402,-8 402,-8 408,-8 414,-14 414,-20 414,-20 414,-209.93 414,-209.93 414,-215.93 408,-221.93 402,-221.93 402,-221.93 308,-221.93 308,-221.93 302,-221.93 296,-215.93 296,-209.93 296,-209.93 296,-20 296,-20 296,-14 302,-8 308,-8"/>
<text text-anchor="middle" x="395.5" y="-15.8" font-family="Times,serif" font-size="14.00">200</text>
</g>
<!-- chol -->
<g id="node1" class="node">
<title>chol</title>
<ellipse fill="none" stroke="black" cx="233" cy="-423.34" rx="84.71" ry="37.45"/>
<text text-anchor="middle" x="233" y="-434.64" font-family="Times,serif" font-size="14.00">chol</text>
<text text-anchor="middle" x="233" y="-419.64" font-family="Times,serif" font-size="14.00">~</text>
<text text-anchor="middle" x="233" y="-404.64" font-family="Times,serif" font-size="14.00">_LKJCholeskyCov</text>
</g>
<!-- cov -->
<g id="node2" class="node">
<title>cov</title>
<polygon fill="none" stroke="black" points="216.5,-327.88 125.5,-327.88 125.5,-274.88 216.5,-274.88 216.5,-327.88"/>
<text text-anchor="middle" x="171" y="-312.68" font-family="Times,serif" font-size="14.00">cov</text>
<text text-anchor="middle" x="171" y="-297.68" font-family="Times,serif" font-size="14.00">~</text>
<text text-anchor="middle" x="171" y="-282.68" font-family="Times,serif" font-size="14.00">Deterministic</text>
</g>
<!-- chol&#45;&gt;cov -->
<g id="edge3" class="edge">
<title>chol&#45;&gt;cov</title>
<path fill="none" stroke="black" d="M214.57,-386.67C206.53,-371.12 197.13,-352.93 189.12,-337.45"/>
<polygon fill="black" stroke="black" points="192.04,-335.48 184.34,-328.2 185.83,-338.69 192.04,-335.48"/>
</g>
<!-- chol_corr -->
<g id="node3" class="node">
<title>chol_corr</title>
<polygon fill="none" stroke="black" points="107.5,-327.88 16.5,-327.88 16.5,-274.88 107.5,-274.88 107.5,-327.88"/>
<text text-anchor="middle" x="62" y="-312.68" font-family="Times,serif" font-size="14.00">chol_corr</text>
<text text-anchor="middle" x="62" y="-297.68" font-family="Times,serif" font-size="14.00">~</text>
<text text-anchor="middle" x="62" y="-282.68" font-family="Times,serif" font-size="14.00">Deterministic</text>
</g>
<!-- chol&#45;&gt;chol_corr -->
<g id="edge1" class="edge">
<title>chol&#45;&gt;chol_corr</title>
<path fill="none" stroke="black" d="M184.56,-392.39C163.47,-378.96 138.67,-362.61 117,-346.86 111.53,-342.88 105.86,-338.56 100.34,-334.22"/>
<polygon fill="black" stroke="black" points="102.4,-331.38 92.4,-327.89 98.04,-336.86 102.4,-331.38"/>
</g>
<!-- chol_stds -->
<g id="node4" class="node">
<title>chol_stds</title>
<polygon fill="none" stroke="black" points="460.5,-327.88 369.5,-327.88 369.5,-274.88 460.5,-274.88 460.5,-327.88"/>
<text text-anchor="middle" x="415" y="-312.68" font-family="Times,serif" font-size="14.00">chol_stds</text>
<text text-anchor="middle" x="415" y="-297.68" font-family="Times,serif" font-size="14.00">~</text>
<text text-anchor="middle" x="415" y="-282.68" font-family="Times,serif" font-size="14.00">Deterministic</text>
</g>
<!-- chol&#45;&gt;chol_stds -->
<g id="edge2" class="edge">
<title>chol&#45;&gt;chol_stds</title>
<path fill="none" stroke="black" d="M285.03,-393.67C308.44,-380.21 336.11,-363.49 360,-346.86 365.62,-342.95 371.4,-338.63 377.01,-334.27"/>
<polygon fill="black" stroke="black" points="379.39,-336.84 385.06,-327.89 375.05,-331.36 379.39,-336.84"/>
</g>
<!-- w -->
<g id="node5" class="node">
<title>w</title>
<ellipse fill="none" stroke="black" cx="296" cy="-301.38" rx="55.31" ry="37.45"/>
<text text-anchor="middle" x="296" y="-312.68" font-family="Times,serif" font-size="14.00">w</text>
<text text-anchor="middle" x="296" y="-297.68" font-family="Times,serif" font-size="14.00">~</text>
<text text-anchor="middle" x="296" y="-282.68" font-family="Times,serif" font-size="14.00">MvNormal</text>
</g>
<!-- chol&#45;&gt;w -->
<g id="edge4" class="edge">
<title>chol&#45;&gt;w</title>
<path fill="none" stroke="black" d="M251.73,-386.67C258.45,-373.88 266.1,-359.31 273.13,-345.92"/>
<polygon fill="black" stroke="black" points="276.33,-347.36 277.88,-336.88 270.13,-344.11 276.33,-347.36"/>
</g>
<!-- mu -->
<g id="node9" class="node">
<title>mu</title>
<polygon fill="none" stroke="black" points="395.5,-213.93 304.5,-213.93 304.5,-160.93 395.5,-160.93 395.5,-213.93"/>
<text text-anchor="middle" x="350" y="-198.73" font-family="Times,serif" font-size="14.00">mu</text>
<text text-anchor="middle" x="350" y="-183.73" font-family="Times,serif" font-size="14.00">~</text>
<text text-anchor="middle" x="350" y="-168.73" font-family="Times,serif" font-size="14.00">Deterministic</text>
</g>
<!-- w&#45;&gt;mu -->
<g id="edge6" class="edge">
<title>w&#45;&gt;mu</title>
<path fill="none" stroke="black" d="M312.79,-265.57C319.33,-252.01 326.81,-236.51 333.34,-222.98"/>
<polygon fill="black" stroke="black" points="336.49,-224.5 337.68,-213.97 330.18,-221.46 336.49,-224.5"/>
</g>
<!-- a -->
<g id="node6" class="node">
<title>a</title>
<ellipse fill="none" stroke="black" cx="520" cy="-301.38" rx="41.94" ry="37.45"/>
<text text-anchor="middle" x="520" y="-312.68" font-family="Times,serif" font-size="14.00">a</text>
<text text-anchor="middle" x="520" y="-297.68" font-family="Times,serif" font-size="14.00">~</text>
<text text-anchor="middle" x="520" y="-282.68" font-family="Times,serif" font-size="14.00">Normal</text>
</g>
<!-- a&#45;&gt;mu -->
<g id="edge5" class="edge">
<title>a&#45;&gt;mu</title>
<path fill="none" stroke="black" d="M504.02,-266.5C496.39,-253.95 486.04,-240.86 473,-232.91 450.03,-218.9 438.46,-233.59 413,-224.91 408.04,-223.22 403.04,-221.12 398.14,-218.79"/>
<polygon fill="black" stroke="black" points="399.37,-215.48 388.87,-214.06 396.19,-221.72 399.37,-215.48"/>
</g>
<!-- sigma -->
<g id="node7" class="node">
<title>sigma</title>
<ellipse fill="none" stroke="black" cx="465" cy="-187.43" rx="43.27" ry="37.45"/>
<text text-anchor="middle" x="465" y="-198.73" font-family="Times,serif" font-size="14.00">sigma</text>
<text text-anchor="middle" x="465" y="-183.73" font-family="Times,serif" font-size="14.00">~</text>
<text text-anchor="middle" x="465" y="-168.73" font-family="Times,serif" font-size="14.00">Gamma</text>
</g>
<!-- y -->
<g id="node8" class="node">
<title>y</title>
<ellipse fill="lightgrey" stroke="black" cx="346" cy="-76.48" rx="41.94" ry="37.45"/>
<text text-anchor="middle" x="346" y="-87.78" font-family="Times,serif" font-size="14.00">y</text>
<text text-anchor="middle" x="346" y="-72.78" font-family="Times,serif" font-size="14.00">~</text>
<text text-anchor="middle" x="346" y="-57.78" font-family="Times,serif" font-size="14.00">Normal</text>
</g>
<!-- sigma&#45;&gt;y -->
<g id="edge9" class="edge">
<title>sigma&#45;&gt;y</title>
<path fill="none" stroke="black" d="M435.58,-159.5C419.47,-144.74 399.36,-126.33 382.28,-110.69"/>
<polygon fill="black" stroke="black" points="384.41,-107.89 374.67,-103.72 379.68,-113.06 384.41,-107.89"/>
</g>
<!-- y&#45;&gt;y -->
<g id="edge7" class="edge">
<title>y&#45;&gt;y</title>
<path fill="none" stroke="black" d="M380.96,-97.02C394.48,-97.93 405.72,-91.09 405.72,-76.48 405.72,-65.75 399.66,-59.2 391.09,-56.85"/>
<polygon fill="black" stroke="black" points="391.24,-53.35 380.96,-55.93 390.61,-60.32 391.24,-53.35"/>
</g>
<!-- mu&#45;&gt;y -->
<g id="edge8" class="edge">
<title>mu&#45;&gt;y</title>
<path fill="none" stroke="black" d="M349.06,-160.89C348.66,-149.98 348.18,-136.89 347.72,-124.35"/>
<polygon fill="black" stroke="black" points="351.21,-123.87 347.34,-114 344.21,-124.12 351.21,-123.87"/>
</g>
</g>
</svg>
