<?xml version="1.0" encoding="UTF-8" standalone="no"?>
<!DOCTYPE svg PUBLIC "-//W3C//DTD SVG 1.1//EN"
 "http://www.w3.org/Graphics/SVG/1.1/DTD/svg11.dtd">
<!-- Generated by graphviz version 2.50.0 (0)
 -->
<!-- Pages: 1 -->
<svg width="272pt" height="363pt"
 viewBox="0.00 0.00 272.13 362.86" xmlns="http://www.w3.org/2000/svg" xmlns:xlink="http://www.w3.org/1999/xlink">
<g id="graph0" class="graph" transform="scale(1 1) rotate(0) translate(4 358.86)">
<polygon fill="white" stroke="transparent" points="-4,4 -4,-358.86 268.13,-358.86 268.13,4 -4,4"/>
<g id="clust2" class="cluster">
<title>cluster11 x 2</title>
<path fill="none" stroke="black" d="M128,-232.91C128,-232.91 204,-232.91 204,-232.91 210,-232.91 216,-238.91 216,-244.91 216,-244.91 216,-334.86 216,-334.86 216,-340.86 210,-346.86 204,-346.86 204,-346.86 128,-346.86 128,-346.86 122,-346.86 116,-340.86 116,-334.86 116,-334.86 116,-244.91 116,-244.91 116,-238.91 122,-232.91 128,-232.91"/>
<text text-anchor="middle" x="190.5" y="-240.71" font-family="Times,serif" font-size="14.00">11 x 2</text>
</g>
<g id="clust3" class="cluster">
<title>cluster500</title>
<path fill="none" stroke="black" d="M64,-8C64,-8 158,-8 158,-8 164,-8 170,-14 170,-20 170,-20 170,-209.93 170,-209.93 170,-215.93 164,-221.93 158,-221.93 158,-221.93 64,-221.93 64,-221.93 58,-221.93 52,-215.93 52,-209.93 52,-209.93 52,-20 52,-20 52,-14 58,-8 64,-8"/>
<text text-anchor="middle" x="151.5" y="-15.8" font-family="Times,serif" font-size="14.00">500</text>
</g>
<g id="clust1" class="cluster">
<title>cluster2</title>
<path fill="none" stroke="black" d="M20,-232.91C20,-232.91 96,-232.91 96,-232.91 102,-232.91 108,-238.91 108,-244.91 108,-244.91 108,-334.86 108,-334.86 108,-340.86 102,-346.86 96,-346.86 96,-346.86 20,-346.86 20,-346.86 14,-346.86 8,-340.86 8,-334.86 8,-334.86 8,-244.91 8,-244.91 8,-238.91 14,-232.91 20,-232.91"/>
<text text-anchor="middle" x="96.5" y="-240.71" font-family="Times,serif" font-size="14.00">2</text>
</g>
<!-- a -->
<g id="node1" class="node">
<title>a</title>
<ellipse fill="none" stroke="black" cx="58" cy="-301.38" rx="41.94" ry="37.45"/>
<text text-anchor="middle" x="58" y="-312.68" font-family="Times,serif" font-size="14.00">a</text>
<text text-anchor="middle" x="58" y="-297.68" font-family="Times,serif" font-size="14.00">~</text>
<text text-anchor="middle" x="58" y="-282.68" font-family="Times,serif" font-size="14.00">Normal</text>
</g>
<!-- mu -->
<g id="node4" class="node">
<title>mu</title>
<polygon fill="none" stroke="black" points="151.5,-213.93 60.5,-213.93 60.5,-160.93 151.5,-160.93 151.5,-213.93"/>
<text text-anchor="middle" x="106" y="-198.73" font-family="Times,serif" font-size="14.00">mu</text>
<text text-anchor="middle" x="106" y="-183.73" font-family="Times,serif" font-size="14.00">~</text>
<text text-anchor="middle" x="106" y="-168.73" font-family="Times,serif" font-size="14.00">Deterministic</text>
</g>
<!-- a&#45;&gt;mu -->
<g id="edge1" class="edge">
<title>a&#45;&gt;mu</title>
<path fill="none" stroke="black" d="M72.66,-266.19C78.43,-252.73 85.05,-237.29 90.86,-223.73"/>
<polygon fill="black" stroke="black" points="94.21,-224.82 94.93,-214.25 87.77,-222.06 94.21,-224.82"/>
</g>
<!-- w -->
<g id="node2" class="node">
<title>w</title>
<ellipse fill="none" stroke="black" cx="166" cy="-301.38" rx="41.94" ry="37.45"/>
<text text-anchor="middle" x="166" y="-312.68" font-family="Times,serif" font-size="14.00">w</text>
<text text-anchor="middle" x="166" y="-297.68" font-family="Times,serif" font-size="14.00">~</text>
<text text-anchor="middle" x="166" y="-282.68" font-family="Times,serif" font-size="14.00">Normal</text>
</g>
<!-- w&#45;&gt;mu -->
<g id="edge2" class="edge">
<title>w&#45;&gt;mu</title>
<path fill="none" stroke="black" d="M148.32,-267.4C140.84,-253.43 132.11,-237.15 124.53,-223.01"/>
<polygon fill="black" stroke="black" points="127.56,-221.24 119.75,-214.08 121.39,-224.55 127.56,-221.24"/>
</g>
<!-- y -->
<g id="node3" class="node">
<title>y</title>
<ellipse fill="lightgrey" stroke="black" cx="102" cy="-76.48" rx="41.94" ry="37.45"/>
<text text-anchor="middle" x="102" y="-87.78" font-family="Times,serif" font-size="14.00">y</text>
<text text-anchor="middle" x="102" y="-72.78" font-family="Times,serif" font-size="14.00">~</text>
<text text-anchor="middle" x="102" y="-57.78" font-family="Times,serif" font-size="14.00">Normal</text>
</g>
<!-- y&#45;&gt;y -->
<g id="edge4" class="edge">
<title>y&#45;&gt;y</title>
<path fill="none" stroke="black" d="M136.96,-97.02C150.48,-97.93 161.72,-91.09 161.72,-76.48 161.72,-65.75 155.66,-59.2 147.09,-56.85"/>
<polygon fill="black" stroke="black" points="147.24,-53.35 136.96,-55.93 146.61,-60.32 147.24,-53.35"/>
</g>
<!-- mu&#45;&gt;y -->
<g id="edge5" class="edge">
<title>mu&#45;&gt;y</title>
<path fill="none" stroke="black" d="M105.06,-160.89C104.66,-149.98 104.18,-136.89 103.72,-124.35"/>
<polygon fill="black" stroke="black" points="107.21,-123.87 103.34,-114 100.21,-124.12 107.21,-123.87"/>
</g>
<!-- sigma -->
<g id="node5" class="node">
<title>sigma</title>
<ellipse fill="none" stroke="black" cx="221" cy="-187.43" rx="43.27" ry="37.45"/>
<text text-anchor="middle" x="221" y="-198.73" font-family="Times,serif" font-size="14.00">sigma</text>
<text text-anchor="middle" x="221" y="-183.73" font-family="Times,serif" font-size="14.00">~</text>
<text text-anchor="middle" x="221" y="-168.73" font-family="Times,serif" font-size="14.00">Gamma</text>
</g>
<!-- sigma&#45;&gt;y -->
<g id="edge3" class="edge">
<title>sigma&#45;&gt;y</title>
<path fill="none" stroke="black" d="M191.58,-159.5C175.47,-144.74 155.36,-126.33 138.28,-110.69"/>
<polygon fill="black" stroke="black" points="140.41,-107.89 130.67,-103.72 135.68,-113.06 140.41,-107.89"/>
</g>
</g>
</svg>
