<?xml version="1.0" encoding="UTF-8" standalone="no"?>
<!DOCTYPE svg PUBLIC "-//W3C//DTD SVG 1.1//EN"
 "http://www.w3.org/Graphics/SVG/1.1/DTD/svg11.dtd">
<!-- Generated by graphviz version 2.50.0 (0)
 -->
<!-- Pages: 1 -->
<svg width="618pt" height="474pt"
 viewBox="0.00 0.00 618.13 473.81" xmlns="http://www.w3.org/2000/svg" xmlns:xlink="http://www.w3.org/1999/xlink">
<g id="graph0" class="graph" transform="scale(1 1) rotate(0) translate(4 469.81)">
<polygon fill="white" stroke="transparent" points="-4,4 -4,-469.81 614.13,-469.81 614.13,4 -4,4"/>
<g id="clust1" class="cluster">
<title>cluster78</title>
<path fill="none" stroke="black" d="M128,-343.86C128,-343.86 290,-343.86 290,-343.86 296,-343.86 302,-349.86 302,-355.86 302,-355.86 302,-445.81 302,-445.81 302,-451.81 296,-457.81 290,-457.81 290,-457.81 128,-457.81 128,-457.81 122,-457.81 116,-451.81 116,-445.81 116,-445.81 116,-355.86 116,-355.86 116,-349.86 122,-343.86 128,-343.86"/>
<text text-anchor="middle" x="287" y="-351.66" font-family="Times,serif" font-size="14.00">78</text>
</g>
<g id="clust2" class="cluster">
<title>cluster12 x 12</title>
<path fill="none" stroke="black" d="M20,-240.88C20,-240.88 213,-240.88 213,-240.88 219,-240.88 225,-246.88 225,-252.88 225,-252.88 225,-320.88 225,-320.88 225,-326.88 219,-332.88 213,-332.88 213,-332.88 20,-332.88 20,-332.88 14,-332.88 8,-326.88 8,-320.88 8,-320.88 8,-252.88 8,-252.88 8,-246.88 14,-240.88 20,-240.88"/>
<text text-anchor="middle" x="196" y="-248.68" font-family="Times,serif" font-size="14.00">12 x 12</text>
</g>
<g id="clust3" class="cluster">
<title>cluster12</title>
<path fill="none" stroke="black" d="M245,-240.88C245,-240.88 329,-240.88 329,-240.88 335,-240.88 341,-246.88 341,-252.88 341,-252.88 341,-320.88 341,-320.88 341,-326.88 335,-332.88 329,-332.88 329,-332.88 245,-332.88 245,-332.88 239,-332.88 233,-326.88 233,-320.88 233,-320.88 233,-252.88 233,-252.88 233,-246.88 239,-240.88 245,-240.88"/>
<text text-anchor="middle" x="326" y="-248.68" font-family="Times,serif" font-size="14.00">12</text>
</g>
<g id="clust4" class="cluster">
<title>cluster12 x 1</title>
<path fill="none" stroke="black" d="M477,-343.86C477,-343.86 553,-343.86 553,-343.86 559,-343.86 565,-349.86 565,-355.86 565,-355.86 565,-445.81 565,-445.81 565,-451.81 559,-457.81 553,-457.81 553,-457.81 477,-457.81 477,-457.81 471,-457.81 465,-451.81 465,-445.81 465,-445.81 465,-355.86 465,-355.86 465,-349.86 471,-343.86 477,-343.86"/>
<text text-anchor="middle" x="539.5" y="-351.66" font-family="Times,serif" font-size="14.00">12 x 1</text>
</g>
<g id="clust5" class="cluster">
<title>cluster12 x 5</title>
<path fill="none" stroke="black" d="M361,-240.88C361,-240.88 445,-240.88 445,-240.88 451,-240.88 457,-246.88 457,-252.88 457,-252.88 457,-445.81 457,-445.81 457,-451.81 451,-457.81 445,-457.81 445,-457.81 361,-457.81 361,-457.81 355,-457.81 349,-451.81 349,-445.81 349,-445.81 349,-252.88 349,-252.88 349,-246.88 355,-240.88 361,-240.88"/>
<text text-anchor="middle" x="431.5" y="-248.68" font-family="Times,serif" font-size="14.00">12 x 5</text>
</g>
<g id="clust6" class="cluster">
<title>cluster745</title>
<path fill="none" stroke="black" d="M410,-8C410,-8 504,-8 504,-8 510,-8 516,-14 516,-20 516,-20 516,-209.93 516,-209.93 516,-215.93 510,-221.93 504,-221.93 504,-221.93 410,-221.93 410,-221.93 404,-221.93 398,-215.93 398,-209.93 398,-209.93 398,-20 398,-20 398,-14 404,-8 410,-8"/>
<text text-anchor="middle" x="497.5" y="-15.8" font-family="Times,serif" font-size="14.00">745</text>
</g>
<!-- chol -->
<g id="node1" class="node">
<title>chol</title>
<ellipse fill="none" stroke="black" cx="209" cy="-412.34" rx="84.71" ry="37.45"/>
<text text-anchor="middle" x="209" y="-423.64" font-family="Times,serif" font-size="14.00">chol</text>
<text text-anchor="middle" x="209" y="-408.64" font-family="Times,serif" font-size="14.00">~</text>
<text text-anchor="middle" x="209" y="-393.64" font-family="Times,serif" font-size="14.00">_LKJCholeskyCov</text>
</g>
<!-- chol_corr -->
<g id="node2" class="node">
<title>chol_corr</title>
<polygon fill="none" stroke="black" points="216.5,-324.88 125.5,-324.88 125.5,-271.88 216.5,-271.88 216.5,-324.88"/>
<text text-anchor="middle" x="171" y="-309.68" font-family="Times,serif" font-size="14.00">chol_corr</text>
<text text-anchor="middle" x="171" y="-294.68" font-family="Times,serif" font-size="14.00">~</text>
<text text-anchor="middle" x="171" y="-279.68" font-family="Times,serif" font-size="14.00">Deterministic</text>
</g>
<!-- chol&#45;&gt;chol_corr -->
<g id="edge1" class="edge">
<title>chol&#45;&gt;chol_corr</title>
<path fill="none" stroke="black" d="M196.66,-374.99C192.24,-361.96 187.27,-347.32 182.89,-334.41"/>
<polygon fill="black" stroke="black" points="186.2,-333.27 179.67,-324.93 179.57,-335.52 186.2,-333.27"/>
</g>
<!-- cov -->
<g id="node3" class="node">
<title>cov</title>
<polygon fill="none" stroke="black" points="107.5,-324.88 16.5,-324.88 16.5,-271.88 107.5,-271.88 107.5,-324.88"/>
<text text-anchor="middle" x="62" y="-309.68" font-family="Times,serif" font-size="14.00">cov</text>
<text text-anchor="middle" x="62" y="-294.68" font-family="Times,serif" font-size="14.00">~</text>
<text text-anchor="middle" x="62" y="-279.68" font-family="Times,serif" font-size="14.00">Deterministic</text>
</g>
<!-- chol&#45;&gt;cov -->
<g id="edge3" class="edge">
<title>chol&#45;&gt;cov</title>
<path fill="none" stroke="black" d="M167.27,-379.55C147.42,-364.44 123.75,-346.41 103.89,-331.29"/>
<polygon fill="black" stroke="black" points="105.99,-328.49 95.92,-325.21 101.75,-334.06 105.99,-328.49"/>
</g>
<!-- chol_stds -->
<g id="node4" class="node">
<title>chol_stds</title>
<polygon fill="none" stroke="black" points="332.5,-324.88 241.5,-324.88 241.5,-271.88 332.5,-271.88 332.5,-324.88"/>
<text text-anchor="middle" x="287" y="-309.68" font-family="Times,serif" font-size="14.00">chol_stds</text>
<text text-anchor="middle" x="287" y="-294.68" font-family="Times,serif" font-size="14.00">~</text>
<text text-anchor="middle" x="287" y="-279.68" font-family="Times,serif" font-size="14.00">Deterministic</text>
</g>
<!-- chol&#45;&gt;chol_stds -->
<g id="edge2" class="edge">
<title>chol&#45;&gt;chol_stds</title>
<path fill="none" stroke="black" d="M233.47,-376.22C242.92,-362.65 253.71,-347.17 263.11,-333.68"/>
<polygon fill="black" stroke="black" points="266.21,-335.34 269.06,-325.14 260.47,-331.34 266.21,-335.34"/>
</g>
<!-- w -->
<g id="node7" class="node">
<title>w</title>
<polygon fill="none" stroke="black" points="448.5,-324.88 357.5,-324.88 357.5,-271.88 448.5,-271.88 448.5,-324.88"/>
<text text-anchor="middle" x="403" y="-309.68" font-family="Times,serif" font-size="14.00">w</text>
<text text-anchor="middle" x="403" y="-294.68" font-family="Times,serif" font-size="14.00">~</text>
<text text-anchor="middle" x="403" y="-279.68" font-family="Times,serif" font-size="14.00">Deterministic</text>
</g>
<!-- chol&#45;&gt;w -->
<g id="edge6" class="edge">
<title>chol&#45;&gt;w</title>
<path fill="none" stroke="black" d="M262.02,-382.79C287.32,-368.94 317.92,-351.87 345,-335.86 348.01,-334.08 351.09,-332.23 354.19,-330.34"/>
<polygon fill="black" stroke="black" points="356.23,-333.2 362.93,-324.98 352.57,-327.23 356.23,-333.2"/>
</g>
<!-- mu_w -->
<g id="node5" class="node">
<title>mu_w</title>
<ellipse fill="none" stroke="black" cx="515" cy="-412.34" rx="41.94" ry="37.45"/>
<text text-anchor="middle" x="515" y="-423.64" font-family="Times,serif" font-size="14.00">mu_w</text>
<text text-anchor="middle" x="515" y="-408.64" font-family="Times,serif" font-size="14.00">~</text>
<text text-anchor="middle" x="515" y="-393.64" font-family="Times,serif" font-size="14.00">Normal</text>
</g>
<!-- mu_w&#45;&gt;w -->
<g id="edge4" class="edge">
<title>mu_w&#45;&gt;w</title>
<path fill="none" stroke="black" d="M492.81,-380.45C483.57,-368.47 472.36,-354.99 461,-343.86 456.7,-339.65 452.01,-335.48 447.21,-331.47"/>
<polygon fill="black" stroke="black" points="449.07,-328.47 439.09,-324.9 444.66,-333.91 449.07,-328.47"/>
</g>
<!-- delta_w -->
<g id="node6" class="node">
<title>delta_w</title>
<ellipse fill="none" stroke="black" cx="403" cy="-412.34" rx="41.94" ry="37.45"/>
<text text-anchor="middle" x="403" y="-423.64" font-family="Times,serif" font-size="14.00">delta_w</text>
<text text-anchor="middle" x="403" y="-408.64" font-family="Times,serif" font-size="14.00">~</text>
<text text-anchor="middle" x="403" y="-393.64" font-family="Times,serif" font-size="14.00">Normal</text>
</g>
<!-- delta_w&#45;&gt;w -->
<g id="edge5" class="edge">
<title>delta_w&#45;&gt;w</title>
<path fill="none" stroke="black" d="M403,-374.68C403,-362.02 403,-347.87 403,-335.28"/>
<polygon fill="black" stroke="black" points="406.5,-335.13 403,-325.13 399.5,-335.13 406.5,-335.13"/>
</g>
<!-- mu -->
<g id="node11" class="node">
<title>mu</title>
<polygon fill="none" stroke="black" points="497.5,-213.93 406.5,-213.93 406.5,-160.93 497.5,-160.93 497.5,-213.93"/>
<text text-anchor="middle" x="452" y="-198.73" font-family="Times,serif" font-size="14.00">mu</text>
<text text-anchor="middle" x="452" y="-183.73" font-family="Times,serif" font-size="14.00">~</text>
<text text-anchor="middle" x="452" y="-168.73" font-family="Times,serif" font-size="14.00">Deterministic</text>
</g>
<!-- w&#45;&gt;mu -->
<g id="edge8" class="edge">
<title>w&#45;&gt;mu</title>
<path fill="none" stroke="black" d="M414.49,-271.84C420.95,-257.46 429.12,-239.3 436.18,-223.6"/>
<polygon fill="black" stroke="black" points="439.5,-224.75 440.41,-214.19 433.12,-221.88 439.5,-224.75"/>
</g>
<!-- a -->
<g id="node8" class="node">
<title>a</title>
<ellipse fill="none" stroke="black" cx="508" cy="-298.38" rx="41.94" ry="37.45"/>
<text text-anchor="middle" x="508" y="-309.68" font-family="Times,serif" font-size="14.00">a</text>
<text text-anchor="middle" x="508" y="-294.68" font-family="Times,serif" font-size="14.00">~</text>
<text text-anchor="middle" x="508" y="-279.68" font-family="Times,serif" font-size="14.00">Normal</text>
</g>
<!-- a&#45;&gt;mu -->
<g id="edge7" class="edge">
<title>a&#45;&gt;mu</title>
<path fill="none" stroke="black" d="M490.89,-264.1C484.27,-251.21 476.68,-236.44 469.97,-223.4"/>
<polygon fill="black" stroke="black" points="472.96,-221.54 465.27,-214.25 466.73,-224.74 472.96,-221.54"/>
</g>
<!-- sigma -->
<g id="node9" class="node">
<title>sigma</title>
<ellipse fill="none" stroke="black" cx="567" cy="-187.43" rx="43.27" ry="37.45"/>
<text text-anchor="middle" x="567" y="-198.73" font-family="Times,serif" font-size="14.00">sigma</text>
<text text-anchor="middle" x="567" y="-183.73" font-family="Times,serif" font-size="14.00">~</text>
<text text-anchor="middle" x="567" y="-168.73" font-family="Times,serif" font-size="14.00">Gamma</text>
</g>
<!-- y -->
<g id="node10" class="node">
<title>y</title>
<ellipse fill="lightgrey" stroke="black" cx="448" cy="-76.48" rx="41.94" ry="37.45"/>
<text text-anchor="middle" x="448" y="-87.78" font-family="Times,serif" font-size="14.00">y</text>
<text text-anchor="middle" x="448" y="-72.78" font-family="Times,serif" font-size="14.00">~</text>
<text text-anchor="middle" x="448" y="-57.78" font-family="Times,serif" font-size="14.00">Normal</text>
</g>
<!-- sigma&#45;&gt;y -->
<g id="edge11" class="edge">
<title>sigma&#45;&gt;y</title>
<path fill="none" stroke="black" d="M537.58,-159.5C521.47,-144.74 501.36,-126.33 484.28,-110.69"/>
<polygon fill="black" stroke="black" points="486.41,-107.89 476.67,-103.72 481.68,-113.06 486.41,-107.89"/>
</g>
<!-- y&#45;&gt;y -->
<g id="edge10" class="edge">
<title>y&#45;&gt;y</title>
<path fill="none" stroke="black" d="M482.96,-97.02C496.48,-97.93 507.72,-91.09 507.72,-76.48 507.72,-65.75 501.66,-59.2 493.09,-56.85"/>
<polygon fill="black" stroke="black" points="493.24,-53.35 482.96,-55.93 492.61,-60.32 493.24,-53.35"/>
</g>
<!-- mu&#45;&gt;y -->
<g id="edge9" class="edge">
<title>mu&#45;&gt;y</title>
<path fill="none" stroke="black" d="M451.06,-160.89C450.66,-149.98 450.18,-136.89 449.72,-124.35"/>
<polygon fill="black" stroke="black" points="453.21,-123.87 449.34,-114 446.21,-124.12 453.21,-123.87"/>
</g>
</g>
</svg>
