<?xml version="1.0" encoding="UTF-8" standalone="no"?>
<!DOCTYPE svg PUBLIC "-//W3C//DTD SVG 1.1//EN"
 "http://www.w3.org/Graphics/SVG/1.1/DTD/svg11.dtd">
<!-- Generated by graphviz version 2.50.0 (0)
 -->
<!-- Pages: 1 -->
<svg width="250pt" height="458pt"
 viewBox="0.00 0.00 250.13 457.81" xmlns="http://www.w3.org/2000/svg" xmlns:xlink="http://www.w3.org/1999/xlink">
<g id="graph0" class="graph" transform="scale(1 1) rotate(0) translate(4 453.81)">
<polygon fill="white" stroke="transparent" points="-4,4 -4,-453.81 246.13,-453.81 246.13,4 -4,4"/>
<g id="clust1" class="cluster">
<title>cluster11</title>
<path fill="none" stroke="black" d="M20,-232.91C20,-232.91 96,-232.91 96,-232.91 102,-232.91 108,-238.91 108,-244.91 108,-244.91 108,-334.86 108,-334.86 108,-340.86 102,-346.86 96,-346.86 96,-346.86 20,-346.86 20,-346.86 14,-346.86 8,-340.86 8,-334.86 8,-334.86 8,-244.91 8,-244.91 8,-238.91 14,-232.91 20,-232.91"/>
<text text-anchor="middle" x="93" y="-240.71" font-family="Times,serif" font-size="14.00">11</text>
</g>
<g id="clust2" class="cluster">
<title>cluster200</title>
<path fill="none" stroke="black" d="M42,-8C42,-8 136,-8 136,-8 142,-8 148,-14 148,-20 148,-20 148,-209.93 148,-209.93 148,-215.93 142,-221.93 136,-221.93 136,-221.93 42,-221.93 42,-221.93 36,-221.93 30,-215.93 30,-209.93 30,-209.93 30,-20 30,-20 30,-14 36,-8 42,-8"/>
<text text-anchor="middle" x="129.5" y="-15.8" font-family="Times,serif" font-size="14.00">200</text>
</g>
<!-- sigma_w -->
<g id="node1" class="node">
<title>sigma_w</title>
<ellipse fill="none" stroke="black" cx="58" cy="-412.34" rx="46.84" ry="37.45"/>
<text text-anchor="middle" x="58" y="-423.64" font-family="Times,serif" font-size="14.00">sigma_w</text>
<text text-anchor="middle" x="58" y="-408.64" font-family="Times,serif" font-size="14.00">~</text>
<text text-anchor="middle" x="58" y="-393.64" font-family="Times,serif" font-size="14.00">Gamma</text>
</g>
<!-- w -->
<g id="node4" class="node">
<title>w</title>
<ellipse fill="none" stroke="black" cx="58" cy="-301.38" rx="41.94" ry="37.45"/>
<text text-anchor="middle" x="58" y="-312.68" font-family="Times,serif" font-size="14.00">w</text>
<text text-anchor="middle" x="58" y="-297.68" font-family="Times,serif" font-size="14.00">~</text>
<text text-anchor="middle" x="58" y="-282.68" font-family="Times,serif" font-size="14.00">Normal</text>
</g>
<!-- sigma_w&#45;&gt;w -->
<g id="edge1" class="edge">
<title>sigma_w&#45;&gt;w</title>
<path fill="none" stroke="black" d="M58,-374.75C58,-366.58 58,-357.8 58,-349.27"/>
<polygon fill="black" stroke="black" points="61.5,-349.06 58,-339.06 54.5,-349.06 61.5,-349.06"/>
</g>
<!-- a -->
<g id="node2" class="node">
<title>a</title>
<ellipse fill="none" stroke="black" cx="159" cy="-301.38" rx="41.94" ry="37.45"/>
<text text-anchor="middle" x="159" y="-312.68" font-family="Times,serif" font-size="14.00">a</text>
<text text-anchor="middle" x="159" y="-297.68" font-family="Times,serif" font-size="14.00">~</text>
<text text-anchor="middle" x="159" y="-282.68" font-family="Times,serif" font-size="14.00">Normal</text>
</g>
<!-- mu -->
<g id="node6" class="node">
<title>mu</title>
<polygon fill="none" stroke="black" points="129.5,-213.93 38.5,-213.93 38.5,-160.93 129.5,-160.93 129.5,-213.93"/>
<text text-anchor="middle" x="84" y="-198.73" font-family="Times,serif" font-size="14.00">mu</text>
<text text-anchor="middle" x="84" y="-183.73" font-family="Times,serif" font-size="14.00">~</text>
<text text-anchor="middle" x="84" y="-168.73" font-family="Times,serif" font-size="14.00">Deterministic</text>
</g>
<!-- a&#45;&gt;mu -->
<g id="edge2" class="edge">
<title>a&#45;&gt;mu</title>
<path fill="none" stroke="black" d="M137.91,-268.9C128.2,-254.41 116.67,-237.2 106.77,-222.41"/>
<polygon fill="black" stroke="black" points="109.62,-220.39 101.15,-214.03 103.81,-224.28 109.62,-220.39"/>
</g>
<!-- sigma -->
<g id="node3" class="node">
<title>sigma</title>
<ellipse fill="none" stroke="black" cx="199" cy="-187.43" rx="43.27" ry="37.45"/>
<text text-anchor="middle" x="199" y="-198.73" font-family="Times,serif" font-size="14.00">sigma</text>
<text text-anchor="middle" x="199" y="-183.73" font-family="Times,serif" font-size="14.00">~</text>
<text text-anchor="middle" x="199" y="-168.73" font-family="Times,serif" font-size="14.00">Gamma</text>
</g>
<!-- y -->
<g id="node5" class="node">
<title>y</title>
<ellipse fill="lightgrey" stroke="black" cx="80" cy="-76.48" rx="41.94" ry="37.45"/>
<text text-anchor="middle" x="80" y="-87.78" font-family="Times,serif" font-size="14.00">y</text>
<text text-anchor="middle" x="80" y="-72.78" font-family="Times,serif" font-size="14.00">~</text>
<text text-anchor="middle" x="80" y="-57.78" font-family="Times,serif" font-size="14.00">Normal</text>
</g>
<!-- sigma&#45;&gt;y -->
<g id="edge5" class="edge">
<title>sigma&#45;&gt;y</title>
<path fill="none" stroke="black" d="M169.58,-159.5C153.47,-144.74 133.36,-126.33 116.28,-110.69"/>
<polygon fill="black" stroke="black" points="118.41,-107.89 108.67,-103.72 113.68,-113.06 118.41,-107.89"/>
</g>
<!-- w&#45;&gt;mu -->
<g id="edge3" class="edge">
<title>w&#45;&gt;mu</title>
<path fill="none" stroke="black" d="M66.3,-264.65C69.3,-251.73 72.69,-237.14 75.69,-224.21"/>
<polygon fill="black" stroke="black" points="79.15,-224.79 78,-214.25 72.33,-223.2 79.15,-224.79"/>
</g>
<!-- y&#45;&gt;y -->
<g id="edge4" class="edge">
<title>y&#45;&gt;y</title>
<path fill="none" stroke="black" d="M114.96,-97.02C128.48,-97.93 139.72,-91.09 139.72,-76.48 139.72,-65.75 133.66,-59.2 125.09,-56.85"/>
<polygon fill="black" stroke="black" points="125.24,-53.35 114.96,-55.93 124.61,-60.32 125.24,-53.35"/>
</g>
<!-- mu&#45;&gt;y -->
<g id="edge6" class="edge">
<title>mu&#45;&gt;y</title>
<path fill="none" stroke="black" d="M83.06,-160.89C82.66,-149.98 82.18,-136.89 81.72,-124.35"/>
<polygon fill="black" stroke="black" points="85.21,-123.87 81.34,-114 78.21,-124.12 85.21,-123.87"/>
</g>
</g>
</svg>
