<?xml version="1.0" encoding="UTF-8" standalone="no"?>
<!DOCTYPE svg PUBLIC "-//W3C//DTD SVG 1.1//EN"
 "http://www.w3.org/Graphics/SVG/1.1/DTD/svg11.dtd">
<!-- Generated by graphviz version 2.50.0 (0)
 -->
<!-- Pages: 1 -->
<svg width="264pt" height="485pt"
 viewBox="0.00 0.00 263.80 484.81" xmlns="http://www.w3.org/2000/svg" xmlns:xlink="http://www.w3.org/1999/xlink">
<g id="graph0" class="graph" transform="scale(1 1) rotate(0) translate(4 480.81)">
<polygon fill="white" stroke="transparent" points="-4,4 -4,-480.81 259.8,-480.81 259.8,4 -4,4"/>
<g id="clust1" class="cluster">
<title>cluster12 x 1</title>
<path fill="none" stroke="black" d="M114.67,-354.86C114.67,-354.86 190.67,-354.86 190.67,-354.86 196.67,-354.86 202.67,-360.86 202.67,-366.86 202.67,-366.86 202.67,-456.81 202.67,-456.81 202.67,-462.81 196.67,-468.81 190.67,-468.81 190.67,-468.81 114.67,-468.81 114.67,-468.81 108.67,-468.81 102.67,-462.81 102.67,-456.81 102.67,-456.81 102.67,-366.86 102.67,-366.86 102.67,-360.86 108.67,-354.86 114.67,-354.86"/>
<text text-anchor="middle" x="177.17" y="-362.66" font-family="Times,serif" font-size="14.00">12 x 1</text>
</g>
<g id="clust2" class="cluster">
<title>cluster12 x 2</title>
<path fill="none" stroke="black" d="M111.67,-232.91C111.67,-232.91 187.67,-232.91 187.67,-232.91 193.67,-232.91 199.67,-238.91 199.67,-244.91 199.67,-244.91 199.67,-334.86 199.67,-334.86 199.67,-340.86 193.67,-346.86 187.67,-346.86 187.67,-346.86 111.67,-346.86 111.67,-346.86 105.67,-346.86 99.67,-340.86 99.67,-334.86 99.67,-334.86 99.67,-244.91 99.67,-244.91 99.67,-238.91 105.67,-232.91 111.67,-232.91"/>
<text text-anchor="middle" x="174.17" y="-240.71" font-family="Times,serif" font-size="14.00">12 x 2</text>
</g>
<g id="clust3" class="cluster">
<title>cluster500</title>
<path fill="none" stroke="black" d="M55.67,-8C55.67,-8 149.67,-8 149.67,-8 155.67,-8 161.67,-14 161.67,-20 161.67,-20 161.67,-209.93 161.67,-209.93 161.67,-215.93 155.67,-221.93 149.67,-221.93 149.67,-221.93 55.67,-221.93 55.67,-221.93 49.67,-221.93 43.67,-215.93 43.67,-209.93 43.67,-209.93 43.67,-20 43.67,-20 43.67,-14 49.67,-8 55.67,-8"/>
<text text-anchor="middle" x="143.17" y="-15.8" font-family="Times,serif" font-size="14.00">500</text>
</g>
<!-- a -->
<g id="node1" class="node">
<title>a</title>
<ellipse fill="none" stroke="black" cx="48.67" cy="-301.38" rx="41.94" ry="37.45"/>
<text text-anchor="middle" x="48.67" y="-312.68" font-family="Times,serif" font-size="14.00">a</text>
<text text-anchor="middle" x="48.67" y="-297.68" font-family="Times,serif" font-size="14.00">~</text>
<text text-anchor="middle" x="48.67" y="-282.68" font-family="Times,serif" font-size="14.00">Normal</text>
</g>
<!-- mu -->
<g id="node7" class="node">
<title>mu</title>
<polygon fill="none" stroke="black" points="143.17,-213.93 52.17,-213.93 52.17,-160.93 143.17,-160.93 143.17,-213.93"/>
<text text-anchor="middle" x="97.67" y="-198.73" font-family="Times,serif" font-size="14.00">mu</text>
<text text-anchor="middle" x="97.67" y="-183.73" font-family="Times,serif" font-size="14.00">~</text>
<text text-anchor="middle" x="97.67" y="-168.73" font-family="Times,serif" font-size="14.00">Deterministic</text>
</g>
<!-- a&#45;&gt;mu -->
<g id="edge3" class="edge">
<title>a&#45;&gt;mu</title>
<path fill="none" stroke="black" d="M63.64,-266.19C69.53,-252.73 76.28,-237.29 82.22,-223.73"/>
<polygon fill="black" stroke="black" points="85.57,-224.81 86.37,-214.25 79.15,-222 85.57,-224.81"/>
</g>
<!-- sigma_w -->
<g id="node2" class="node">
<title>sigma_w</title>
<ellipse fill="none" stroke="black" cx="46.67" cy="-423.34" rx="46.84" ry="37.45"/>
<text text-anchor="middle" x="46.67" y="-434.64" font-family="Times,serif" font-size="14.00">sigma_w</text>
<text text-anchor="middle" x="46.67" y="-419.64" font-family="Times,serif" font-size="14.00">~</text>
<text text-anchor="middle" x="46.67" y="-404.64" font-family="Times,serif" font-size="14.00">Gamma</text>
</g>
<!-- w -->
<g id="node5" class="node">
<title>w</title>
<ellipse fill="none" stroke="black" cx="149.67" cy="-301.38" rx="41.94" ry="37.45"/>
<text text-anchor="middle" x="149.67" y="-312.68" font-family="Times,serif" font-size="14.00">w</text>
<text text-anchor="middle" x="149.67" y="-297.68" font-family="Times,serif" font-size="14.00">~</text>
<text text-anchor="middle" x="149.67" y="-282.68" font-family="Times,serif" font-size="14.00">Normal</text>
</g>
<!-- sigma_w&#45;&gt;w -->
<g id="edge1" class="edge">
<title>sigma_w&#45;&gt;w</title>
<path fill="none" stroke="black" d="M70.02,-390.5C78.73,-379.04 88.89,-366.15 98.67,-354.86 103.82,-348.92 109.45,-342.78 115.05,-336.9"/>
<polygon fill="black" stroke="black" points="117.65,-339.24 122.06,-329.6 112.61,-334.38 117.65,-339.24"/>
</g>
<!-- sigma -->
<g id="node3" class="node">
<title>sigma</title>
<ellipse fill="none" stroke="black" cx="212.67" cy="-187.43" rx="43.27" ry="37.45"/>
<text text-anchor="middle" x="212.67" y="-198.73" font-family="Times,serif" font-size="14.00">sigma</text>
<text text-anchor="middle" x="212.67" y="-183.73" font-family="Times,serif" font-size="14.00">~</text>
<text text-anchor="middle" x="212.67" y="-168.73" font-family="Times,serif" font-size="14.00">Gamma</text>
</g>
<!-- y -->
<g id="node6" class="node">
<title>y</title>
<ellipse fill="lightgrey" stroke="black" cx="93.67" cy="-76.48" rx="41.94" ry="37.45"/>
<text text-anchor="middle" x="93.67" y="-87.78" font-family="Times,serif" font-size="14.00">y</text>
<text text-anchor="middle" x="93.67" y="-72.78" font-family="Times,serif" font-size="14.00">~</text>
<text text-anchor="middle" x="93.67" y="-57.78" font-family="Times,serif" font-size="14.00">Normal</text>
</g>
<!-- sigma&#45;&gt;y -->
<g id="edge7" class="edge">
<title>sigma&#45;&gt;y</title>
<path fill="none" stroke="black" d="M183.25,-159.5C167.14,-144.74 147.03,-126.33 129.95,-110.69"/>
<polygon fill="black" stroke="black" points="132.07,-107.89 122.34,-103.72 127.35,-113.06 132.07,-107.89"/>
</g>
<!-- mu_w -->
<g id="node4" class="node">
<title>mu_w</title>
<ellipse fill="none" stroke="black" cx="152.67" cy="-423.34" rx="41.94" ry="37.45"/>
<text text-anchor="middle" x="152.67" y="-434.64" font-family="Times,serif" font-size="14.00">mu_w</text>
<text text-anchor="middle" x="152.67" y="-419.64" font-family="Times,serif" font-size="14.00">~</text>
<text text-anchor="middle" x="152.67" y="-404.64" font-family="Times,serif" font-size="14.00">Normal</text>
</g>
<!-- mu_w&#45;&gt;w -->
<g id="edge2" class="edge">
<title>mu_w&#45;&gt;w</title>
<path fill="none" stroke="black" d="M151.75,-385.69C151.47,-374.29 151.15,-361.55 150.85,-349.54"/>
<polygon fill="black" stroke="black" points="154.34,-349.12 150.59,-339.21 147.34,-349.3 154.34,-349.12"/>
</g>
<!-- w&#45;&gt;mu -->
<g id="edge4" class="edge">
<title>w&#45;&gt;mu</title>
<path fill="none" stroke="black" d="M133.93,-266.49C127.56,-252.79 120.22,-236.99 113.82,-223.2"/>
<polygon fill="black" stroke="black" points="116.95,-221.62 109.56,-214.03 110.6,-224.57 116.95,-221.62"/>
</g>
<!-- y&#45;&gt;y -->
<g id="edge6" class="edge">
<title>y&#45;&gt;y</title>
<path fill="none" stroke="black" d="M128.63,-97.02C142.15,-97.93 153.39,-91.09 153.39,-76.48 153.39,-65.75 147.33,-59.2 138.76,-56.85"/>
<polygon fill="black" stroke="black" points="138.91,-53.35 128.63,-55.93 138.28,-60.32 138.91,-53.35"/>
</g>
<!-- mu&#45;&gt;y -->
<g id="edge5" class="edge">
<title>mu&#45;&gt;y</title>
<path fill="none" stroke="black" d="M96.73,-160.89C96.33,-149.98 95.85,-136.89 95.39,-124.35"/>
<polygon fill="black" stroke="black" points="98.87,-123.87 95.01,-114 91.88,-124.12 98.87,-123.87"/>
</g>
</g>
</svg>
