<?xml version="1.0" encoding="UTF-8" standalone="no"?>
<!DOCTYPE svg PUBLIC "-//W3C//DTD SVG 1.1//EN"
 "http://www.w3.org/Graphics/SVG/1.1/DTD/svg11.dtd">
<!-- Generated by graphviz version 2.50.0 (0)
 -->
<!-- Pages: 1 -->
<svg width="605pt" height="593pt"
 viewBox="0.00 0.00 605.13 592.77" xmlns="http://www.w3.org/2000/svg" xmlns:xlink="http://www.w3.org/1999/xlink">
<g id="graph0" class="graph" transform="scale(1 1) rotate(0) translate(4 588.77)">
<polygon fill="white" stroke="transparent" points="-4,4 -4,-588.77 601.13,-588.77 601.13,4 -4,4"/>
<g id="clust1" class="cluster">
<title>cluster66</title>
<path fill="none" stroke="black" d="M198,-462.81C198,-462.81 360,-462.81 360,-462.81 366,-462.81 372,-468.81 372,-474.81 372,-474.81 372,-564.77 372,-564.77 372,-570.77 366,-576.77 360,-576.77 360,-576.77 198,-576.77 198,-576.77 192,-576.77 186,-570.77 186,-564.77 186,-564.77 186,-474.81 186,-474.81 186,-468.81 192,-462.81 198,-462.81"/>
<text text-anchor="middle" x="357" y="-470.61" font-family="Times,serif" font-size="14.00">66</text>
</g>
<g id="clust2" class="cluster">
<title>cluster11 x 11</title>
<path fill="none" stroke="black" d="M20,-351.84C20,-351.84 213,-351.84 213,-351.84 219,-351.84 225,-357.84 225,-363.84 225,-363.84 225,-431.84 225,-431.84 225,-437.84 219,-443.84 213,-443.84 213,-443.84 20,-443.84 20,-443.84 14,-443.84 8,-437.84 8,-431.84 8,-431.84 8,-363.84 8,-363.84 8,-357.84 14,-351.84 20,-351.84"/>
<text text-anchor="middle" x="196" y="-359.64" font-family="Times,serif" font-size="14.00">11 x 11</text>
</g>
<g id="clust3" class="cluster">
<title>cluster11</title>
<path fill="none" stroke="black" d="M245,-240.88C245,-240.88 430,-240.88 430,-240.88 436,-240.88 442,-246.88 442,-252.88 442,-252.88 442,-442.81 442,-442.81 442,-448.81 436,-454.81 430,-454.81 430,-454.81 245,-454.81 245,-454.81 239,-454.81 233,-448.81 233,-442.81 233,-442.81 233,-252.88 233,-252.88 233,-246.88 239,-240.88 245,-240.88"/>
<text text-anchor="middle" x="427" y="-248.68" font-family="Times,serif" font-size="14.00">11</text>
</g>
<g id="clust4" class="cluster">
<title>cluster200</title>
<path fill="none" stroke="black" d="M397,-8C397,-8 491,-8 491,-8 497,-8 503,-14 503,-20 503,-20 503,-209.93 503,-209.93 503,-215.93 497,-221.93 491,-221.93 491,-221.93 397,-221.93 397,-221.93 391,-221.93 385,-215.93 385,-209.93 385,-209.93 385,-20 385,-20 385,-14 391,-8 397,-8"/>
<text text-anchor="middle" x="484.5" y="-15.8" font-family="Times,serif" font-size="14.00">200</text>
</g>
<!-- chol -->
<g id="node1" class="node">
<title>chol</title>
<ellipse fill="none" stroke="black" cx="279" cy="-531.29" rx="84.71" ry="37.45"/>
<text text-anchor="middle" x="279" y="-542.59" font-family="Times,serif" font-size="14.00">chol</text>
<text text-anchor="middle" x="279" y="-527.59" font-family="Times,serif" font-size="14.00">~</text>
<text text-anchor="middle" x="279" y="-512.59" font-family="Times,serif" font-size="14.00">_LKJCholeskyCov</text>
</g>
<!-- cov -->
<g id="node2" class="node">
<title>cov</title>
<polygon fill="none" stroke="black" points="216.5,-435.84 125.5,-435.84 125.5,-382.84 216.5,-382.84 216.5,-435.84"/>
<text text-anchor="middle" x="171" y="-420.64" font-family="Times,serif" font-size="14.00">cov</text>
<text text-anchor="middle" x="171" y="-405.64" font-family="Times,serif" font-size="14.00">~</text>
<text text-anchor="middle" x="171" y="-390.64" font-family="Times,serif" font-size="14.00">Deterministic</text>
</g>
<!-- chol&#45;&gt;cov -->
<g id="edge3" class="edge">
<title>chol&#45;&gt;cov</title>
<path fill="none" stroke="black" d="M248.34,-496.24C233.55,-479.81 215.86,-460.17 201.14,-443.81"/>
<polygon fill="black" stroke="black" points="203.47,-441.17 194.18,-436.08 198.27,-445.85 203.47,-441.17"/>
</g>
<!-- chol_corr -->
<g id="node3" class="node">
<title>chol_corr</title>
<polygon fill="none" stroke="black" points="107.5,-435.84 16.5,-435.84 16.5,-382.84 107.5,-382.84 107.5,-435.84"/>
<text text-anchor="middle" x="62" y="-420.64" font-family="Times,serif" font-size="14.00">chol_corr</text>
<text text-anchor="middle" x="62" y="-405.64" font-family="Times,serif" font-size="14.00">~</text>
<text text-anchor="middle" x="62" y="-390.64" font-family="Times,serif" font-size="14.00">Deterministic</text>
</g>
<!-- chol&#45;&gt;chol_corr -->
<g id="edge1" class="edge">
<title>chol&#45;&gt;chol_corr</title>
<path fill="none" stroke="black" d="M216.3,-505.72C185.16,-492.41 147.55,-474.65 116,-454.81 110.13,-451.12 104.19,-446.86 98.5,-442.47"/>
<polygon fill="black" stroke="black" points="100.39,-439.51 90.4,-436 96.03,-444.98 100.39,-439.51"/>
</g>
<!-- chol_stds -->
<g id="node4" class="node">
<title>chol_stds</title>
<polygon fill="none" stroke="black" points="433.5,-435.84 342.5,-435.84 342.5,-382.84 433.5,-382.84 433.5,-435.84"/>
<text text-anchor="middle" x="388" y="-420.64" font-family="Times,serif" font-size="14.00">chol_stds</text>
<text text-anchor="middle" x="388" y="-405.64" font-family="Times,serif" font-size="14.00">~</text>
<text text-anchor="middle" x="388" y="-390.64" font-family="Times,serif" font-size="14.00">Deterministic</text>
</g>
<!-- chol&#45;&gt;chol_stds -->
<g id="edge2" class="edge">
<title>chol&#45;&gt;chol_stds</title>
<path fill="none" stroke="black" d="M309.94,-496.24C324.87,-479.81 342.72,-460.17 357.58,-443.81"/>
<polygon fill="black" stroke="black" points="360.47,-445.83 364.61,-436.08 355.29,-441.13 360.47,-445.83"/>
</g>
<!-- w -->
<g id="node6" class="node">
<title>w</title>
<polygon fill="none" stroke="black" points="432.5,-324.88 341.5,-324.88 341.5,-271.88 432.5,-271.88 432.5,-324.88"/>
<text text-anchor="middle" x="387" y="-309.68" font-family="Times,serif" font-size="14.00">w</text>
<text text-anchor="middle" x="387" y="-294.68" font-family="Times,serif" font-size="14.00">~</text>
<text text-anchor="middle" x="387" y="-279.68" font-family="Times,serif" font-size="14.00">Deterministic</text>
</g>
<!-- chol&#45;&gt;w -->
<g id="edge4" class="edge">
<title>chol&#45;&gt;w</title>
<path fill="none" stroke="black" d="M355.33,-514.59C388.18,-503.64 423.47,-485.3 443,-454.81 467.69,-416.28 461.2,-393.83 443,-351.84 439.98,-344.86 435.52,-338.39 430.42,-332.55"/>
<polygon fill="black" stroke="black" points="432.59,-329.75 423.13,-324.97 427.54,-334.61 432.59,-329.75"/>
</g>
<!-- delta_w -->
<g id="node5" class="node">
<title>delta_w</title>
<ellipse fill="none" stroke="black" cx="283" cy="-409.34" rx="41.94" ry="37.45"/>
<text text-anchor="middle" x="283" y="-420.64" font-family="Times,serif" font-size="14.00">delta_w</text>
<text text-anchor="middle" x="283" y="-405.64" font-family="Times,serif" font-size="14.00">~</text>
<text text-anchor="middle" x="283" y="-390.64" font-family="Times,serif" font-size="14.00">Normal</text>
</g>
<!-- delta_w&#45;&gt;w -->
<g id="edge5" class="edge">
<title>delta_w&#45;&gt;w</title>
<path fill="none" stroke="black" d="M308.02,-379.21C315.88,-370.3 324.68,-360.55 333,-351.84 339.1,-345.45 345.74,-338.78 352.21,-332.42"/>
<polygon fill="black" stroke="black" points="354.97,-334.62 359.69,-325.14 350.08,-329.61 354.97,-334.62"/>
</g>
<!-- mu -->
<g id="node10" class="node">
<title>mu</title>
<polygon fill="none" stroke="black" points="484.5,-213.93 393.5,-213.93 393.5,-160.93 484.5,-160.93 484.5,-213.93"/>
<text text-anchor="middle" x="439" y="-198.73" font-family="Times,serif" font-size="14.00">mu</text>
<text text-anchor="middle" x="439" y="-183.73" font-family="Times,serif" font-size="14.00">~</text>
<text text-anchor="middle" x="439" y="-168.73" font-family="Times,serif" font-size="14.00">Deterministic</text>
</g>
<!-- w&#45;&gt;mu -->
<g id="edge7" class="edge">
<title>w&#45;&gt;mu</title>
<path fill="none" stroke="black" d="M399.19,-271.84C406.05,-257.46 414.72,-239.3 422.22,-223.6"/>
<polygon fill="black" stroke="black" points="425.56,-224.72 426.7,-214.19 419.24,-221.71 425.56,-224.72"/>
</g>
<!-- a -->
<g id="node7" class="node">
<title>a</title>
<ellipse fill="none" stroke="black" cx="492" cy="-298.38" rx="41.94" ry="37.45"/>
<text text-anchor="middle" x="492" y="-309.68" font-family="Times,serif" font-size="14.00">a</text>
<text text-anchor="middle" x="492" y="-294.68" font-family="Times,serif" font-size="14.00">~</text>
<text text-anchor="middle" x="492" y="-279.68" font-family="Times,serif" font-size="14.00">Normal</text>
</g>
<!-- a&#45;&gt;mu -->
<g id="edge6" class="edge">
<title>a&#45;&gt;mu</title>
<path fill="none" stroke="black" d="M475.67,-263.8C469.4,-250.92 462.24,-236.21 455.92,-223.22"/>
<polygon fill="black" stroke="black" points="459.01,-221.57 451.49,-214.11 452.72,-224.64 459.01,-221.57"/>
</g>
<!-- sigma -->
<g id="node8" class="node">
<title>sigma</title>
<ellipse fill="none" stroke="black" cx="554" cy="-187.43" rx="43.27" ry="37.45"/>
<text text-anchor="middle" x="554" y="-198.73" font-family="Times,serif" font-size="14.00">sigma</text>
<text text-anchor="middle" x="554" y="-183.73" font-family="Times,serif" font-size="14.00">~</text>
<text text-anchor="middle" x="554" y="-168.73" font-family="Times,serif" font-size="14.00">Gamma</text>
</g>
<!-- y -->
<g id="node9" class="node">
<title>y</title>
<ellipse fill="lightgrey" stroke="black" cx="435" cy="-76.48" rx="41.94" ry="37.45"/>
<text text-anchor="middle" x="435" y="-87.78" font-family="Times,serif" font-size="14.00">y</text>
<text text-anchor="middle" x="435" y="-72.78" font-family="Times,serif" font-size="14.00">~</text>
<text text-anchor="middle" x="435" y="-57.78" font-family="Times,serif" font-size="14.00">Normal</text>
</g>
<!-- sigma&#45;&gt;y -->
<g id="edge9" class="edge">
<title>sigma&#45;&gt;y</title>
<path fill="none" stroke="black" d="M524.58,-159.5C508.47,-144.74 488.36,-126.33 471.28,-110.69"/>
<polygon fill="black" stroke="black" points="473.41,-107.89 463.67,-103.72 468.68,-113.06 473.41,-107.89"/>
</g>
<!-- y&#45;&gt;y -->
<g id="edge8" class="edge">
<title>y&#45;&gt;y</title>
<path fill="none" stroke="black" d="M469.96,-97.02C483.48,-97.93 494.72,-91.09 494.72,-76.48 494.72,-65.75 488.66,-59.2 480.09,-56.85"/>
<polygon fill="black" stroke="black" points="480.24,-53.35 469.96,-55.93 479.61,-60.32 480.24,-53.35"/>
</g>
<!-- mu&#45;&gt;y -->
<g id="edge10" class="edge">
<title>mu&#45;&gt;y</title>
<path fill="none" stroke="black" d="M438.06,-160.89C437.66,-149.98 437.18,-136.89 436.72,-124.35"/>
<polygon fill="black" stroke="black" points="440.21,-123.87 436.34,-114 433.21,-124.12 440.21,-123.87"/>
</g>
</g>
</svg>
