<?xml version="1.0" encoding="UTF-8" standalone="no"?>
<!DOCTYPE svg PUBLIC "-//W3C//DTD SVG 1.1//EN"
 "http://www.w3.org/Graphics/SVG/1.1/DTD/svg11.dtd">
<!-- Generated by graphviz version 2.47.0 (0)
 -->
<!-- Pages: 1 -->
<svg width="354pt" height="471pt"
 viewBox="0.00 0.00 354.40 470.86" xmlns="http://www.w3.org/2000/svg" xmlns:xlink="http://www.w3.org/1999/xlink">
<g id="graph0" class="graph" transform="scale(1 1) rotate(0) translate(4 466.86)">
<polygon fill="white" stroke="transparent" points="-4,4 -4,-466.86 350.4,-466.86 350.4,4 -4,4"/>
<g id="clust1" class="cluster">
<title>cluster2</title>
<path fill="none" stroke="black" d="M126.4,-229.95C126.4,-229.95 208.4,-229.95 208.4,-229.95 214.4,-229.95 220.4,-235.95 220.4,-241.95 220.4,-241.95 220.4,-331.91 220.4,-331.91 220.4,-337.91 214.4,-343.91 208.4,-343.91 208.4,-343.91 126.4,-343.91 126.4,-343.91 120.4,-343.91 114.4,-337.91 114.4,-331.91 114.4,-331.91 114.4,-241.95 114.4,-241.95 114.4,-235.95 120.4,-229.95 126.4,-229.95"/>
<text text-anchor="middle" x="208.4" y="-237.75" font-family="Times,serif" font-size="14.00">2</text>
</g>
<g id="clust2" class="cluster">
<title>cluster7</title>
<path fill="none" stroke="black" d="M240.4,-240.93C240.4,-240.93 326.4,-240.93 326.4,-240.93 332.4,-240.93 338.4,-246.93 338.4,-252.93 338.4,-252.93 338.4,-442.86 338.4,-442.86 338.4,-448.86 332.4,-454.86 326.4,-454.86 326.4,-454.86 240.4,-454.86 240.4,-454.86 234.4,-454.86 228.4,-448.86 228.4,-442.86 228.4,-442.86 228.4,-252.93 228.4,-252.93 228.4,-246.93 234.4,-240.93 240.4,-240.93"/>
<text text-anchor="middle" x="326.4" y="-248.73" font-family="Times,serif" font-size="14.00">7</text>
</g>
<g id="clust3" class="cluster">
<title>cluster9</title>
<path fill="none" stroke="black" d="M182.4,-129.95C182.4,-129.95 268.4,-129.95 268.4,-129.95 274.4,-129.95 280.4,-135.95 280.4,-141.95 280.4,-141.95 280.4,-209.95 280.4,-209.95 280.4,-215.95 274.4,-221.95 268.4,-221.95 268.4,-221.95 182.4,-221.95 182.4,-221.95 176.4,-221.95 170.4,-215.95 170.4,-209.95 170.4,-209.95 170.4,-141.95 170.4,-141.95 170.4,-135.95 176.4,-129.95 182.4,-129.95"/>
<text text-anchor="middle" x="268.4" y="-137.75" font-family="Times,serif" font-size="14.00">9</text>
</g>
<g id="clust4" class="cluster">
<title>cluster1,146</title>
<path fill="none" stroke="black" d="M187.4,-8C187.4,-8 263.4,-8 263.4,-8 269.4,-8 275.4,-14 275.4,-20 275.4,-20 275.4,-109.95 275.4,-109.95 275.4,-115.95 269.4,-121.95 263.4,-121.95 263.4,-121.95 187.4,-121.95 187.4,-121.95 181.4,-121.95 175.4,-115.95 175.4,-109.95 175.4,-109.95 175.4,-20 175.4,-20 175.4,-14 181.4,-8 187.4,-8"/>
<text text-anchor="middle" x="251.4" y="-15.8" font-family="Times,serif" font-size="14.00">1,146</text>
</g>
<!-- mu -->
<g id="node1" class="node">
<title>mu</title>
<ellipse fill="none" stroke="black" cx="178.4" cy="-409.38" rx="41.94" ry="37.45"/>
<text text-anchor="middle" x="178.4" y="-420.68" font-family="Times,serif" font-size="14.00">mu</text>
<text text-anchor="middle" x="178.4" y="-405.68" font-family="Times,serif" font-size="14.00">~</text>
<text text-anchor="middle" x="178.4" y="-390.68" font-family="Times,serif" font-size="14.00">Normal</text>
</g>
<!-- theta_cp -->
<g id="node3" class="node">
<title>theta_cp</title>
<ellipse fill="none" stroke="black" cx="167.4" cy="-298.43" rx="45.01" ry="37.45"/>
<text text-anchor="middle" x="167.4" y="-309.73" font-family="Times,serif" font-size="14.00">theta_cp</text>
<text text-anchor="middle" x="167.4" y="-294.73" font-family="Times,serif" font-size="14.00">~</text>
<text text-anchor="middle" x="167.4" y="-279.73" font-family="Times,serif" font-size="14.00">Normal</text>
</g>
<!-- mu&#45;&gt;theta_cp -->
<g id="edge1" class="edge">
<title>mu&#45;&gt;theta_cp</title>
<path fill="none" stroke="black" d="M174.7,-371.8C173.88,-363.63 172.99,-354.85 172.13,-346.32"/>
<polygon fill="black" stroke="black" points="175.59,-345.7 171.1,-336.1 168.62,-346.4 175.59,-345.7"/>
</g>
<!-- theta_ncp -->
<g id="node5" class="node">
<title>theta_ncp</title>
<polygon fill="none" stroke="black" points="329.9,-324.93 236.9,-324.93 236.9,-271.93 329.9,-271.93 329.9,-324.93"/>
<text text-anchor="middle" x="283.4" y="-309.73" font-family="Times,serif" font-size="14.00">theta_ncp</text>
<text text-anchor="middle" x="283.4" y="-294.73" font-family="Times,serif" font-size="14.00">~</text>
<text text-anchor="middle" x="283.4" y="-279.73" font-family="Times,serif" font-size="14.00">Deterministic</text>
</g>
<!-- mu&#45;&gt;theta_ncp -->
<g id="edge4" class="edge">
<title>mu&#45;&gt;theta_ncp</title>
<path fill="none" stroke="black" d="M205.16,-380.61C219.26,-365.98 236.65,-347.94 251.45,-332.58"/>
<polygon fill="black" stroke="black" points="254.06,-334.91 258.48,-325.28 249.02,-330.06 254.06,-334.91"/>
</g>
<!-- tau -->
<g id="node2" class="node">
<title>tau</title>
<ellipse fill="none" stroke="black" cx="59.4" cy="-409.38" rx="59.29" ry="37.45"/>
<text text-anchor="middle" x="59.4" y="-420.68" font-family="Times,serif" font-size="14.00">tau</text>
<text text-anchor="middle" x="59.4" y="-405.68" font-family="Times,serif" font-size="14.00">~</text>
<text text-anchor="middle" x="59.4" y="-390.68" font-family="Times,serif" font-size="14.00">HalfNormal</text>
</g>
<!-- tau&#45;&gt;theta_cp -->
<g id="edge2" class="edge">
<title>tau&#45;&gt;theta_cp</title>
<path fill="none" stroke="black" d="M90.35,-377.16C103.28,-364.11 118.39,-348.87 131.79,-335.35"/>
<polygon fill="black" stroke="black" points="134.48,-337.61 139.03,-328.05 129.51,-332.68 134.48,-337.61"/>
</g>
<!-- tau&#45;&gt;theta_ncp -->
<g id="edge3" class="edge">
<title>tau&#45;&gt;theta_ncp</title>
<path fill="none" stroke="black" d="M102.64,-383.44C110.72,-379.28 119.21,-375.24 127.4,-371.91 168.96,-354.98 184.26,-363.97 224.4,-343.91 231.58,-340.32 238.77,-335.83 245.55,-331.09"/>
<polygon fill="black" stroke="black" points="247.86,-333.73 253.87,-325 243.73,-328.08 247.86,-333.73"/>
</g>
<!-- theta -->
<g id="node6" class="node">
<title>theta</title>
<polygon fill="none" stroke="black" points="271.9,-213.95 178.9,-213.95 178.9,-160.95 271.9,-160.95 271.9,-213.95"/>
<text text-anchor="middle" x="225.4" y="-198.75" font-family="Times,serif" font-size="14.00">theta</text>
<text text-anchor="middle" x="225.4" y="-183.75" font-family="Times,serif" font-size="14.00">~</text>
<text text-anchor="middle" x="225.4" y="-168.75" font-family="Times,serif" font-size="14.00">Deterministic</text>
</g>
<!-- theta_cp&#45;&gt;theta -->
<g id="edge6" class="edge">
<title>theta_cp&#45;&gt;theta</title>
<path fill="none" stroke="black" d="M185.27,-263.84C192.13,-250.96 199.96,-236.24 206.88,-223.25"/>
<polygon fill="black" stroke="black" points="210.12,-224.61 211.73,-214.14 203.94,-221.32 210.12,-224.61"/>
</g>
<!-- eta_ncp -->
<g id="node4" class="node">
<title>eta_ncp</title>
<ellipse fill="none" stroke="black" cx="283.4" cy="-409.38" rx="42.35" ry="37.45"/>
<text text-anchor="middle" x="283.4" y="-420.68" font-family="Times,serif" font-size="14.00">eta_ncp</text>
<text text-anchor="middle" x="283.4" y="-405.68" font-family="Times,serif" font-size="14.00">~</text>
<text text-anchor="middle" x="283.4" y="-390.68" font-family="Times,serif" font-size="14.00">Normal</text>
</g>
<!-- eta_ncp&#45;&gt;theta_ncp -->
<g id="edge5" class="edge">
<title>eta_ncp&#45;&gt;theta_ncp</title>
<path fill="none" stroke="black" d="M283.4,-371.8C283.4,-360.06 283.4,-347.08 283.4,-335.38"/>
<polygon fill="black" stroke="black" points="286.9,-335.08 283.4,-325.08 279.9,-335.08 286.9,-335.08"/>
</g>
<!-- theta_ncp&#45;&gt;theta -->
<g id="edge7" class="edge">
<title>theta_ncp&#45;&gt;theta</title>
<path fill="none" stroke="black" d="M269.8,-271.88C262.07,-257.37 252.29,-238.99 243.88,-223.18"/>
<polygon fill="black" stroke="black" points="246.9,-221.4 239.11,-214.22 240.72,-224.69 246.9,-221.4"/>
</g>
<!-- y -->
<g id="node7" class="node">
<title>y</title>
<ellipse fill="lightgrey" stroke="black" cx="225.4" cy="-76.48" rx="41.94" ry="37.45"/>
<text text-anchor="middle" x="225.4" y="-87.78" font-family="Times,serif" font-size="14.00">y</text>
<text text-anchor="middle" x="225.4" y="-72.78" font-family="Times,serif" font-size="14.00">~</text>
<text text-anchor="middle" x="225.4" y="-57.78" font-family="Times,serif" font-size="14.00">Normal</text>
</g>
<!-- theta&#45;&gt;y -->
<g id="edge8" class="edge">
<title>theta&#45;&gt;y</title>
<path fill="none" stroke="black" d="M225.4,-160.9C225.4,-149.99 225.4,-136.9 225.4,-124.36"/>
<polygon fill="black" stroke="black" points="228.9,-124.01 225.4,-114.01 221.9,-124.01 228.9,-124.01"/>
</g>
</g>
</svg>
