<?xml version="1.0" encoding="UTF-8" standalone="no"?>
<!DOCTYPE svg PUBLIC "-//W3C//DTD SVG 1.1//EN"
 "http://www.w3.org/Graphics/SVG/1.1/DTD/svg11.dtd">
<!-- Generated by graphviz version 2.42.3 (20191010.1750)
 -->
<!-- Title: %3 Pages: 1 -->
<svg width="357pt" height="252pt"
 viewBox="0.00 0.00 357.17 252.00" xmlns="http://www.w3.org/2000/svg" xmlns:xlink="http://www.w3.org/1999/xlink">
<g id="graph0" class="graph" transform="scale(1 1) rotate(0) translate(4 248)">
<title>%3</title>
<polygon fill="white" stroke="transparent" points="-4,4 -4,-248 353.17,-248 353.17,4 -4,4"/>
<g id="clust1" class="cluster">
<title>cluster17</title>
<path fill="none" stroke="black" d="M231.17,-162C231.17,-162 329.17,-162 329.17,-162 335.17,-162 341.17,-168 341.17,-174 341.17,-174 341.17,-224 341.17,-224 341.17,-230 335.17,-236 329.17,-236 329.17,-236 231.17,-236 231.17,-236 225.17,-236 219.17,-230 219.17,-224 219.17,-224 219.17,-174 219.17,-174 219.17,-168 225.17,-162 231.17,-162"/>
<text text-anchor="middle" x="326.17" y="-168.8" font-family="Times,serif" font-size="14.00">17</text>
</g>
<g id="clust2" class="cluster">
<title>cluster827</title>
<path fill="none" stroke="black" d="M189.17,-8C189.17,-8 305.17,-8 305.17,-8 311.17,-8 317.17,-14 317.17,-20 317.17,-20 317.17,-142 317.17,-142 317.17,-148 311.17,-154 305.17,-154 305.17,-154 189.17,-154 189.17,-154 183.17,-154 177.17,-148 177.17,-142 177.17,-142 177.17,-20 177.17,-20 177.17,-14 183.17,-8 189.17,-8"/>
<text text-anchor="middle" x="298.67" y="-14.8" font-family="Times,serif" font-size="14.00">827</text>
</g>
<!-- sigma -->
<g id="node1" class="node">
<title>sigma</title>
<ellipse fill="none" stroke="black" cx="83.17" cy="-128" rx="83.34" ry="18"/>
<text text-anchor="middle" x="83.17" y="-123.8" font-family="Times,serif" font-size="14.00">sigma ~ Exponential</text>
</g>
<!-- D -->
<g id="node4" class="node">
<title>D</title>
<ellipse fill="lightgrey" stroke="black" cx="242.17" cy="-56" rx="52.93" ry="18"/>
<text text-anchor="middle" x="242.17" y="-51.8" font-family="Times,serif" font-size="14.00">D ~ Normal</text>
</g>
<!-- sigma&#45;&gt;D -->
<g id="edge3" class="edge">
<title>sigma&#45;&gt;D</title>
<path fill="none" stroke="black" d="M118.06,-111.64C142.81,-100.74 176.09,-86.09 201.96,-74.7"/>
<polygon fill="black" stroke="black" points="203.38,-77.9 211.12,-70.67 200.56,-71.49 203.38,-77.9"/>
</g>
<!-- a -->
<g id="node2" class="node">
<title>a</title>
<ellipse fill="none" stroke="black" cx="159.17" cy="-210" rx="50.01" ry="18"/>
<text text-anchor="middle" x="159.17" y="-205.8" font-family="Times,serif" font-size="14.00">a ~ Normal</text>
</g>
<!-- mu -->
<g id="node5" class="node">
<title>mu</title>
<polygon fill="none" stroke="black" points="309.33,-146 185,-146 185,-110 309.33,-110 309.33,-146"/>
<text text-anchor="middle" x="247.17" y="-123.8" font-family="Times,serif" font-size="14.00">mu ~ Deterministic</text>
</g>
<!-- a&#45;&gt;mu -->
<g id="edge2" class="edge">
<title>a&#45;&gt;mu</title>
<path fill="none" stroke="black" d="M176.98,-192.81C189.52,-181.41 206.53,-165.95 220.66,-153.1"/>
<polygon fill="black" stroke="black" points="223.12,-155.59 228.17,-146.27 218.42,-150.41 223.12,-155.59"/>
</g>
<!-- w -->
<g id="node3" class="node">
<title>w</title>
<ellipse fill="none" stroke="black" cx="280.17" cy="-210" rx="52.93" ry="18"/>
<text text-anchor="middle" x="280.17" y="-205.8" font-family="Times,serif" font-size="14.00">w ~ Normal</text>
</g>
<!-- w&#45;&gt;mu -->
<g id="edge1" class="edge">
<title>w&#45;&gt;mu</title>
<path fill="none" stroke="black" d="M273.17,-192.03C268.82,-181.5 263.15,-167.73 258.2,-155.75"/>
<polygon fill="black" stroke="black" points="261.32,-154.13 254.27,-146.22 254.85,-156.8 261.32,-154.13"/>
</g>
<!-- mu&#45;&gt;D -->
<g id="edge4" class="edge">
<title>mu&#45;&gt;D</title>
<path fill="none" stroke="black" d="M245.93,-109.7C245.38,-101.98 244.72,-92.71 244.11,-84.11"/>
<polygon fill="black" stroke="black" points="247.59,-83.83 243.39,-74.1 240.61,-84.33 247.59,-83.83"/>
</g>
</g>
</svg>
