<?xml version="1.0" encoding="UTF-8" standalone="no"?>
<!DOCTYPE svg PUBLIC "-//W3C//DTD SVG 1.1//EN"
 "http://www.w3.org/Graphics/SVG/1.1/DTD/svg11.dtd">
<!-- Generated by graphviz version 2.50.0 (0)
 -->
<!-- Pages: 1 -->
<svg width="285pt" height="363pt"
 viewBox="0.00 0.00 284.70 362.86" xmlns="http://www.w3.org/2000/svg" xmlns:xlink="http://www.w3.org/1999/xlink">
<g id="graph0" class="graph" transform="scale(1 1) rotate(0) translate(4 358.86)">
<polygon fill="white" stroke="transparent" points="-4,4 -4,-358.86 280.7,-358.86 280.7,4 -4,4"/>
<g id="clust1" class="cluster">
<title>cluster17</title>
<path fill="none" stroke="black" d="M104.72,-232.91C104.72,-232.91 180.72,-232.91 180.72,-232.91 186.72,-232.91 192.72,-238.91 192.72,-244.91 192.72,-244.91 192.72,-334.86 192.72,-334.86 192.72,-340.86 186.72,-346.86 180.72,-346.86 180.72,-346.86 104.72,-346.86 104.72,-346.86 98.72,-346.86 92.72,-340.86 92.72,-334.86 92.72,-334.86 92.72,-244.91 92.72,-244.91 92.72,-238.91 98.72,-232.91 104.72,-232.91"/>
<text text-anchor="middle" x="177.72" y="-240.71" font-family="Times,serif" font-size="14.00">17</text>
</g>
<g id="clust2" class="cluster">
<title>cluster827</title>
<path fill="none" stroke="black" d="M46.72,-8C46.72,-8 140.72,-8 140.72,-8 146.72,-8 152.72,-14 152.72,-20 152.72,-20 152.72,-209.93 152.72,-209.93 152.72,-215.93 146.72,-221.93 140.72,-221.93 140.72,-221.93 46.72,-221.93 46.72,-221.93 40.72,-221.93 34.72,-215.93 34.72,-209.93 34.72,-209.93 34.72,-20 34.72,-20 34.72,-14 40.72,-8 46.72,-8"/>
<text text-anchor="middle" x="134.22" y="-15.8" font-family="Times,serif" font-size="14.00">827</text>
</g>
<!-- a -->
<g id="node1" class="node">
<title>a</title>
<ellipse fill="none" stroke="black" cx="41.72" cy="-301.38" rx="41.94" ry="37.45"/>
<text text-anchor="middle" x="41.72" y="-312.68" font-family="Times,serif" font-size="14.00">a</text>
<text text-anchor="middle" x="41.72" y="-297.68" font-family="Times,serif" font-size="14.00">~</text>
<text text-anchor="middle" x="41.72" y="-282.68" font-family="Times,serif" font-size="14.00">Normal</text>
</g>
<!-- mu -->
<g id="node5" class="node">
<title>mu</title>
<polygon fill="none" stroke="black" points="134.22,-213.93 43.22,-213.93 43.22,-160.93 134.22,-160.93 134.22,-213.93"/>
<text text-anchor="middle" x="88.72" y="-198.73" font-family="Times,serif" font-size="14.00">mu</text>
<text text-anchor="middle" x="88.72" y="-183.73" font-family="Times,serif" font-size="14.00">~</text>
<text text-anchor="middle" x="88.72" y="-168.73" font-family="Times,serif" font-size="14.00">Deterministic</text>
</g>
<!-- a&#45;&gt;mu -->
<g id="edge1" class="edge">
<title>a&#45;&gt;mu</title>
<path fill="none" stroke="black" d="M56.08,-266.19C61.72,-252.73 68.21,-237.29 73.9,-223.73"/>
<polygon fill="black" stroke="black" points="77.24,-224.82 77.88,-214.25 70.78,-222.11 77.24,-224.82"/>
</g>
<!-- sigma -->
<g id="node2" class="node">
<title>sigma</title>
<ellipse fill="none" stroke="black" cx="218.72" cy="-187.43" rx="57.97" ry="37.45"/>
<text text-anchor="middle" x="218.72" y="-198.73" font-family="Times,serif" font-size="14.00">sigma</text>
<text text-anchor="middle" x="218.72" y="-183.73" font-family="Times,serif" font-size="14.00">~</text>
<text text-anchor="middle" x="218.72" y="-168.73" font-family="Times,serif" font-size="14.00">Exponential</text>
</g>
<!-- D -->
<g id="node4" class="node">
<title>D</title>
<ellipse fill="lightgrey" stroke="black" cx="84.72" cy="-76.48" rx="41.94" ry="37.45"/>
<text text-anchor="middle" x="84.72" y="-87.78" font-family="Times,serif" font-size="14.00">D</text>
<text text-anchor="middle" x="84.72" y="-72.78" font-family="Times,serif" font-size="14.00">~</text>
<text text-anchor="middle" x="84.72" y="-57.78" font-family="Times,serif" font-size="14.00">Normal</text>
</g>
<!-- sigma&#45;&gt;D -->
<g id="edge4" class="edge">
<title>sigma&#45;&gt;D</title>
<path fill="none" stroke="black" d="M183.16,-157.52C164.71,-142.51 142.14,-124.16 123.27,-108.82"/>
<polygon fill="black" stroke="black" points="125.4,-106.04 115.43,-102.45 120.98,-111.47 125.4,-106.04"/>
</g>
<!-- w -->
<g id="node3" class="node">
<title>w</title>
<ellipse fill="none" stroke="black" cx="142.72" cy="-301.38" rx="41.94" ry="37.45"/>
<text text-anchor="middle" x="142.72" y="-312.68" font-family="Times,serif" font-size="14.00">w</text>
<text text-anchor="middle" x="142.72" y="-297.68" font-family="Times,serif" font-size="14.00">~</text>
<text text-anchor="middle" x="142.72" y="-282.68" font-family="Times,serif" font-size="14.00">Normal</text>
</g>
<!-- w&#45;&gt;mu -->
<g id="edge2" class="edge">
<title>w&#45;&gt;mu</title>
<path fill="none" stroke="black" d="M126.52,-266.79C119.9,-253.08 112.26,-237.23 105.58,-223.38"/>
<polygon fill="black" stroke="black" points="108.63,-221.65 101.13,-214.16 102.32,-224.69 108.63,-221.65"/>
</g>
<!-- D&#45;&gt;D -->
<g id="edge3" class="edge">
<title>D&#45;&gt;D</title>
<path fill="none" stroke="black" d="M119.68,-97.02C133.2,-97.93 144.44,-91.09 144.44,-76.48 144.44,-65.75 138.38,-59.2 129.81,-56.85"/>
<polygon fill="black" stroke="black" points="129.96,-53.35 119.68,-55.93 129.33,-60.32 129.96,-53.35"/>
</g>
<!-- mu&#45;&gt;D -->
<g id="edge5" class="edge">
<title>mu&#45;&gt;D</title>
<path fill="none" stroke="black" d="M87.78,-160.89C87.38,-149.98 86.9,-136.89 86.44,-124.35"/>
<polygon fill="black" stroke="black" points="89.92,-123.87 86.06,-114 82.93,-124.12 89.92,-123.87"/>
</g>
</g>
</svg>
